<svg id="Layer_1" data-name="Layer 1" xmlns="http://www.w3.org/2000/svg" viewBox="0 0 372.23 49.83"><defs><style>.cls-1{fill:#343041;}.cls-2{fill:#20c997;}</style></defs><path class="cls-1" d="M70.91,33.59H62.7L61.77,37h-6l7.41-23.27h7.34L78,37H71.84ZM66.82,18.07,64,29h5.68Z"/><path class="cls-1" d="M101.38,20l-5.65,1.43c-1-2.36-2.36-3.53-4.85-3.53-3.39,0-5.48,2.63-5.48,7.35s2,7.47,5.58,7.47c2.82,0,4.35-1.42,5.35-4.05l5.55,1.66c-1.86,4.75-6.12,7.21-11.1,7.21-5.88,0-11.43-3.55-11.43-12.26,0-8.54,5.55-12.2,11.5-12.2C95.3,13.11,99.42,14.94,101.38,20Z"/><path class="cls-1" d="M126.8,20l-5.65,1.43c-1-2.36-2.36-3.53-4.85-3.53-3.39,0-5.48,2.63-5.48,7.35s2,7.47,5.58,7.47c2.83,0,4.36-1.42,5.35-4.05l5.55,1.66c-1.86,4.75-6.11,7.21-11.1,7.21-5.88,0-11.43-3.55-11.43-12.26,0-8.54,5.55-12.2,11.5-12.2C120.72,13.11,124.84,14.94,126.8,20Z"/><path class="cls-1" d="M147.17,18.46H137v4.36h9.51V27.4H137v4.82h10.5V37H131.12V13.71h16Z"/><path class="cls-1" d="M150.56,33.25l3.69-3.49a9.76,9.76,0,0,0,7.25,3.06c2.39,0,4-.9,4-2.36s-.8-2.13-5.38-3c-5.69-1.1-8.41-3-8.41-7.38s3.79-7,9.4-7a12.89,12.89,0,0,1,10.07,4.15l-3.85,3.23a7.78,7.78,0,0,0-6.12-2.59c-2.29,0-3.49.76-3.49,2.09s.87,2,5.19,2.73c6,1,8.67,3,8.67,7.37,0,4.89-4.15,7.55-10.23,7.55A14.31,14.31,0,0,1,150.56,33.25Z"/><path class="cls-1" d="M173.93,33.25l3.69-3.49a9.76,9.76,0,0,0,7.24,3.06c2.4,0,4-.9,4-2.36s-.79-2.13-5.38-3c-5.68-1.1-8.41-3-8.41-7.38s3.79-7,9.41-7a12.91,12.91,0,0,1,10.07,4.15l-3.86,3.23a7.76,7.76,0,0,0-6.11-2.59c-2.3,0-3.49.76-3.49,2.09s.86,2,5.18,2.73c6,1,8.68,3,8.68,7.37,0,4.89-4.16,7.55-10.24,7.55A14.27,14.27,0,0,1,173.93,33.25Z"/><path class="cls-1" d="M228.37,20l-5.65,1.43c-1-2.36-2.36-3.53-4.86-3.53-3.39,0-5.48,2.63-5.48,7.35s2,7.47,5.58,7.47c2.83,0,4.36-1.42,5.35-4.05l5.55,1.66c-1.86,4.75-6.11,7.21-11.1,7.21-5.88,0-11.43-3.55-11.43-12.26,0-8.54,5.55-12.2,11.5-12.2C222.28,13.11,226.4,14.94,228.37,20Z"/><path class="cls-1" d="M255.45,25.38c0,8.37-5.62,12.23-11.93,12.23-5.72,0-11.9-3.39-11.9-12.3,0-8.57,5.65-12.23,11.9-12.23C249.3,13.08,255.45,16.27,255.45,25.38Zm-17.78-.1c0,4.78,2,7.54,5.85,7.54,3.36,0,5.88-2.52,5.88-7.41,0-4.65-2-7.51-5.88-7.51C240.06,17.9,237.67,20.52,237.67,25.28Z"/><path class="cls-1" d="M279.28,37h-6.95l-7.81-14.53V37h-5.19V13.71h7l7.75,14.86V13.71h5.22Z"/><path class="cls-1" d="M302,18.53h-6.48V37h-5.88V18.53H283.2V13.71H302Z"/><path class="cls-1" d="M324.91,21.12c0,3.09-1.63,5.22-4.65,6.42l6,9.44h-7l-4.82-8.48h-2.6V37h-5.84V13.71h9.2C322.05,13.71,324.91,16.8,324.91,21.12Zm-13-2.76v5.72h3.46c2.06,0,3.49-.73,3.49-2.92,0-1.9-1.16-2.8-3.32-2.8Z"/><path class="cls-1" d="M352.23,25.38c0,8.37-5.62,12.23-11.93,12.23-5.72,0-11.9-3.39-11.9-12.3,0-8.57,5.65-12.23,11.9-12.23C346.08,13.08,352.23,16.27,352.23,25.38Zm-17.78-.1c0,4.78,2,7.54,5.85,7.54,3.35,0,5.88-2.52,5.88-7.41,0-4.65-2-7.51-5.88-7.51C336.84,17.9,334.45,20.52,334.45,25.28Z"/><path class="cls-1" d="M362,32h9.87v5H356.11V13.71H362Z"/><path class="cls-2" d="M13.8,34.75h0l-1.14.83h0q-.93.66-1.89,1.29c.31.4.63.79.95,1.17h0l.36.42v0l.45.51,0,0,.4.45c2-1.34,4-2.85,6.09-4.36,1-.74,2-1.52,2.93-2.31s1.91-1.69,2.73-2.52L25,30A33.72,33.72,0,0,0,32.7,16.65a34.16,34.16,0,0,0-16,0,33.63,33.63,0,0,0,3.44,7.72c.85-.88,1.67-1.86,2.58-3-.33-.6-.65-1.21-.94-1.83,1-.09,1.94-.14,2.92-.14s1.95,0,2.92.14a30.15,30.15,0,0,1-2.92,5,46.45,46.45,0,0,1-3.15,3.57l-.7.69h0l0,0,0,0h0l0,0,0,0h0v0l0,0,0,0h0c-.36.34-.72.68-1.1,1v0c-.4.39-.82.76-1.24,1.13s-1,.89-1.56,1.33h0c-1,.79-1.92,1.56-2.92,2.3Zm-2-2.76a44.76,44.76,0,0,1-7.6-22.5,45.07,45.07,0,0,1,41,0A44.88,44.88,0,0,1,25.61,44q-2.22,1.57-4.2,2.88c1.07.74,2.16,1.43,3.29,2.08A48.57,48.57,0,0,0,49,7.33a48.67,48.67,0,0,0-48.6,0A48.29,48.29,0,0,0,8.79,34.2c1-.71,2-1.45,3-2.21Zm3.66,10c.92.89,1.89,1.75,2.88,2.58a69.58,69.58,0,0,0,10.75-8.15A41.13,41.13,0,0,0,41.28,11.74a41.37,41.37,0,0,0-33.17,0,41.18,41.18,0,0,0,6.5,17.8c1-.88,2-1.71,2.83-2.47a37.53,37.53,0,0,1-5.2-13,37.81,37.81,0,0,1,24.91,0A37.46,37.46,0,0,1,25.79,34.43,48.23,48.23,0,0,1,15.44,42Z"/></svg>