<svg id="Layer_1" data-name="Layer 1" xmlns="http://www.w3.org/2000/svg" viewBox="0 0 50 50"><defs><style>.cls-1{fill:#20c997;}</style></defs><path class="cls-1" d="M13.8,35.11h0L12.63,36h0c-.64.45-1.29.9-1.95,1.33.33.41.65.81,1,1.2h0c.13.14.25.29.37.43l0,0,.46.53v0c.14.15.27.31.41.45C15,38.6,17.05,37,19.17,35.49c1-.76,2-1.56,3-2.38s2-1.73,2.81-2.59c.11-.1.21-.21.31-.31a34.64,34.64,0,0,0,7.92-13.7,35.31,35.31,0,0,0-16.44,0,35.13,35.13,0,0,0,3.54,7.94c.87-.91,1.71-1.92,2.64-3.07-.34-.62-.66-1.24-1-1.88a32.21,32.21,0,0,1,6,0,30.63,30.63,0,0,1-3,5.09,45.2,45.2,0,0,1-3.24,3.67c-.24.24-.47.48-.72.71v0l0,0,0,0h0l0,0,0,0,0,0v0l0,0,0,0h0c-.36.35-.74.7-1.12,1.05v0c-.42.39-.84.78-1.28,1.16s-1,.91-1.6,1.36h0c-1,.81-2,1.59-3,2.36Zm-2.08-2.84A45.93,45.93,0,0,1,3.92,9.16a46.18,46.18,0,0,1,42.15,0A46.1,46.1,0,0,1,25.94,44.64c-1.53,1.08-3,2.07-4.32,3,1.1.76,2.22,1.47,3.38,2.14A49.9,49.9,0,0,0,50,6.94,50,50,0,0,0,0,6.94a49.69,49.69,0,0,0,8.62,27.6c1.06-.73,2.08-1.49,3.08-2.26Zm3.76,10.28c.95.93,1.94,1.81,3,2.66a71.58,71.58,0,0,0,11-8.37A42.26,42.26,0,0,0,42,11.47,42.48,42.48,0,0,0,8,11.47a42.22,42.22,0,0,0,6.68,18.28c1.06-.9,2-1.75,2.91-2.54A38.41,38.41,0,0,1,12.2,13.89a38.81,38.81,0,0,1,25.59,0A38.47,38.47,0,0,1,26.12,34.78a49.93,49.93,0,0,1-10.63,7.78Z"/></svg>